<?xml version="1.0"?><svg width="640" height="480" xmlns="http://www.w3.org/2000/svg" xmlns:xlink="http://www.w3.org/1999/xlink">
 <title>Fireplace</title>
 <metadata id="metadata3">FirefestivefireOpen Clip Art LibraryValessio Soares de BritoValessio Soares de Britoimage/svg+xmlen</metadata>
 <defs>
  <linearGradient id="linearGradient29186">
   <stop id="stop29187" offset="0" stop-color="#ffffff"/>
   <stop id="stop29188" offset="1" stop-opacity="0" stop-color="#ffffff"/>
  </linearGradient>
  <linearGradient id="linearGradient17250">
   <stop id="stop17251" offset="0" stop-color="#dc0000"/>
   <stop id="stop17252" offset="1" stop-color="#ffb200"/>
  </linearGradient>
  <linearGradient id="linearGradient26051">
   <stop id="stop26052" offset="0" stop-opacity="0.449275" stop-color="#ffffff"/>
   <stop id="stop26053" offset="1" stop-opacity="0" stop-color="#ffffff"/>
  </linearGradient>
  <linearGradient id="linearGradient14625">
   <stop id="stop14626" offset="0" stop-color="#ffffff"/>
   <stop id="stop14627" offset="1" stop-opacity="0" stop-color="#ffffff"/>
  </linearGradient>
  <linearGradient xlink:href="#linearGradient14625" id="linearGradient4463" x1="-0.483345" y1="-0.273425" x2="0.633327" y2="0.929692"/>
  <linearGradient xlink:href="#linearGradient26051" id="linearGradient4466" x1="0.07436" y1="0.512884" x2="0.886215" y2="0.512884"/>
  <linearGradient xlink:href="#linearGradient17250" id="linearGradient4470" x1="0.258365" y1="1.281236" x2="0.528066" y2="0.359371"/>
  <linearGradient xlink:href="#linearGradient26051" id="linearGradient4473" x1="0.068144" y1="0.513767" x2="0.872196" y2="0.513767"/>
  <linearGradient xlink:href="#linearGradient14625" id="linearGradient4476" x1="1.828895" y1="0.085924" x2="0.157897" y2="0.929667"/>
  <linearGradient xlink:href="#linearGradient17250" id="linearGradient4479" x1="0.219525" y1="0.86719" x2="0.792708" y2="0.125014"/>
  <linearGradient xlink:href="#linearGradient29186" id="linearGradient4498" x1="-0.564235" y1="0.021774" x2="0.690579" y2="0.990636"/>
  <linearGradient xlink:href="#linearGradient26051" id="linearGradient4501" x1="0.080882" y1="0.534703" x2="0.920822" y2="0.534703"/>
  <linearGradient xlink:href="#linearGradient14625" id="linearGradient4504" x1="-0.558001" y1="0.124996" x2="0.259041" y2="1.007815"/>
  <linearGradient xlink:href="#linearGradient17250" id="linearGradient4512" x1="0.70836" y1="0.90624" x2="0.500026" y2="0.460928"/>
  <linearGradient xlink:href="#linearGradient17250" id="linearGradient4515" x1="0.214298" y1="0.914058" x2="0.45239" y2="0.242186"/>
 </defs>
 <g>
  <title>Layer 1</title>
  <g id="svg_1"/>
  <g transform="rotate(-24.354248046875 126.80876159667964,296.3573913574218) " id="svg_2">
   <path d="m82.445793,189.05719c16.462891,-23.163834 12.234772,-32.698441 9.545898,-48.646912c-5.719757,-7.352158 0.135162,-17.768623 4.820587,-45.894318c-14.991241,25.634308 -34.337921,29.89814 -14.366486,94.541229z" id="path15995" stroke-opacity="0.503817" stroke-miterlimit="4" stroke-width="2.156311" stroke="yellow" fill-rule="evenodd" fill="#ffd700"/>
   <path d="m92.861748,89.580292c-9.585999,15.31749 -24.122681,29.451683 -23.360748,50.681427c-0.103241,17.651566 5.59021,34.120117 9.846252,50.681427c8.690735,-12.122269 17.937042,-27.516388 14.069031,-44.597946c0.02652,-6.758438 -3.8479,-12.005478 -3.959564,-18.388672c2.11792,-15.06723 6.499969,-29.621643 8.231598,-44.824448c-1.608856,2.149399 -3.217712,4.298813 -4.826569,6.448212z" id="path28564" stroke-opacity="0.503817" stroke-miterlimit="4" stroke-width="2.156311" fill-rule="evenodd" fill="url(#linearGradient4466)"/>
   <path d="m14.710715,370.790192c19.921632,71.939545 51.440156,110.089172 107.934785,114.449738c62.144585,24.342804 119.829399,-25.43338 103.475029,-103.549133c-7.433533,16.713074 -12.190979,25.796326 -24.976074,30.519073c5.054443,-43.236145 -27.355835,-50.50293 -11.596924,-97.009094c11.002136,-28.703369 17.543213,-63.945984 -1.78363,-92.649353c-8.02832,32.700165 -17.840942,54.499695 -37.465515,78.479553c2.08136,-39.966125 19.327515,-72.303284 8.920776,-110.089142c1.486633,-25.433365 -32.708,-24.706604 -33.005058,-102.459457c-21.705933,33.42643 -30.923767,59.2229 -27.652893,110.089218c-8.02832,41.056686 -27.652893,55.953232 -24.084961,100.279114c-2.973145,-24.706604 -5.054504,-46.143173 -0.891815,-64.308945c-2.379059,-22.527145 -4.757446,-41.783447 -23.192474,-57.76973c5.649231,27.97583 12.190979,70.122223 -7.136536,80.659027c-5.352203,13.443054 -32.112824,59.586212 -2.676117,131.889496c-8.622406,-6.177032 -17.245697,-7.993561 -25.868592,-18.530365l0,0z" id="path15991" stroke-opacity="0.503817" stroke-miterlimit="4" stroke-width="2.156311" stroke="yellow" fill-rule="evenodd" fill="url(#linearGradient4515)"/>
   <path d="m119.745903,104.136055c-15.437622,24.767708 -21.984772,56.397408 -20.016754,87.238899c1.470642,15.081787 -5.0914,29.122635 -9.762939,42.595291c-8.590302,20.083038 -16.361084,42.015808 -14.012115,65.219818c-0.677551,13.370422 -5.538818,-0.110168 -5.026917,-6.835114c-2.328094,-18.917236 -3.323761,-38.534668 -0.148132,-57.27449c-1.600586,-18.235718 -5.380951,-38.003281 -17.704498,-49.987808c3.659485,21.645889 8.414612,46.042404 -0.418335,66.723358c-3.169098,6.928467 -10.257965,8.822906 -11.739594,17.14267c-14.871277,31.832825 -15.991791,71.519714 -4.701294,105.220245c2.34967,7.675659 5.41449,15.00296 8.074799,22.52533c-8.286102,-5.78125 -17.379303,-9.704651 -25.387909,-16.041931c11.093384,39.691376 32.187195,78.738586 65.486237,94.185272c13.09491,6.812073 27.374969,8.076508 41.210052,10.765625c30.324333,11.567566 67.95562,3.966858 87.962334,-28.277863c11.754822,-18.65506 15.020264,-43.830627 11.018738,-66.568146c-5.295166,13.08606 -14.470703,23.691711 -26.321045,27.051086c2.726624,-16.80072 -1.424561,-33.613007 -8.527893,-47.983307c-7.668152,-15.333405 -9.471069,-34.716431 -3.351501,-51.28302c9.284973,-24.867859 16.302979,-54.960968 5.489563,-80.842606c-3.346375,-11.947952 -5.702148,-4.613602 -7.397522,3.849045c-7.070007,26.574615 -21.346497,49.181152 -37.503235,68.566711c1.118774,-27.111206 8.859863,-52.762634 12.149658,-79.413513c1.878479,-13.576813 -0.279419,-27.20079 -2.605591,-40.348541c-1.583496,-14.773834 -14.184387,-22.352402 -19.500839,-35.003738c-9.474373,-16.826401 -12.625557,-37.739853 -13.178719,-57.828758c-1.362183,2.201805 -2.724365,4.403656 -4.086548,6.605484z" id="path29198" stroke-opacity="0.503817" stroke-miterlimit="4" stroke-width="2.156311" fill-rule="evenodd" fill="url(#linearGradient4498)"/>
   <path d="m116.401665,474.339783c-47.277344,-61.039673 -55.305603,-103.549347 -24.084686,-143.879059c35.086334,-76.299484 26.463409,-124.259171 0.892029,-170.038834c24.084686,101.369308 -28.544861,166.768784 -45.493317,196.198593c-10.109619,-38.149628 -1.486725,-54.499634 12.488373,-101.369247c-27.355469,36.333084 -44.006622,80.296066 -33.897003,122.079147c18.435207,62.856232 61.847107,76.662872 90.094604,97.009399z" id="path15990" stroke-opacity="0.503817" stroke-miterlimit="4" stroke-width="2.156311" stroke="yellow" fill-rule="evenodd" fill="url(#linearGradient4512)"/>
   <path d="m173.777267,243.716232c-6.337463,-22.522797 -1.165771,-27.346207 4.38562,-37.185791c5.726624,-2.725403 3.971375,-12.227905 7.096375,-33.390381c4.731445,23.62059 17.433716,34.360519 -11.481995,70.576172z" id="path15994" stroke-opacity="0.503817" stroke-miterlimit="4" stroke-width="2.156311" stroke="yellow" fill-rule="evenodd" fill="#ffd700"/>
   <path d="m180.898849,169.435974c-1.927002,10.040695 -1.055847,21.106186 -4.633545,30.471756c-8.38269,7.82515 -12.037903,22.365585 -8.362122,34.705261c1.141174,10.342224 3.788513,12.126511 8.481445,2.682373c10.02063,-12.599838 19.396484,-30.652771 13.690735,-48.706711c-2.574463,-9.20845 -4.828735,-18.557068 -7.69635,-27.645462c-0.493408,2.830933 -0.986755,5.66185 -1.480164,8.492783z" id="path28563" stroke-opacity="0.503817" stroke-miterlimit="4" stroke-width="2.156311" fill-rule="evenodd" fill="url(#linearGradient4501)"/>
   <path d="m214.524521,381.690399c16.35376,-19.256561 13.083008,-27.61322 11.596252,-41.419708c-4.757446,-6.539948 1.189392,-15.259949 7.136292,-39.239746c-15.16449,21.436523 -33.005005,24.343201 -18.732544,80.659454z" id="path15993" stroke-opacity="0.503817" stroke-miterlimit="4" stroke-width="2.156311" stroke="yellow" fill-rule="evenodd" fill="#ffd700"/>
   <path d="m137.810303,474.339783c18.435165,-12.716614 23.489975,-52.683014 25.868698,-97.009399c4.460144,-42.873047 13.380432,-85.746063 72.25415,-92.649353c-24.084778,23.616577 -43.70929,52.682983 -34.789001,106.819336c-2.378784,78.842773 -50.250854,75.936127 -63.333847,82.839417z" id="path15992" stroke-opacity="0.503817" stroke-miterlimit="4" stroke-width="2.156311" stroke="yellow" fill-rule="evenodd" fill="url(#linearGradient4479)"/>
   <path d="m229.149277,278.417877c-25.104736,4.349457 -50.981567,22.778992 -58.349854,54.080994c-11.824402,39.125916 -5.290466,83.657349 -21.417725,121.239838c-6.124573,3.252441 -4.627319,17.204865 2.936462,14.474976c22.154907,-4.908447 43.182068,-23.715607 48.795105,-51.31662c5.413574,-19.16687 2.343872,-39.444 1.768005,-59.1315c0.736633,-28.552612 14.266235,-54.300659 32.027771,-71.916443c3.109131,-5.471863 -2.076477,-7.3125 -5.759766,-7.431244z" id="path26056" stroke-opacity="0.503817" stroke-miterlimit="4" stroke-width="2.156311" fill-rule="evenodd" fill="url(#linearGradient4476)"/>
   <path d="m229.454391,293.366913c-10.116516,13.085297 -24.79303,25.331268 -24.438904,45.450165c-0.747742,14.414459 3.453003,28.157806 6.065674,41.993958c8.781738,-10.239746 18.763794,-23.578461 15.546997,-39.726776c-0.022888,-7.11557 -4.411743,-13.339966 -0.966187,-20.27298c3.309204,-10.978455 6.770996,-21.902649 9.069458,-33.302704c-1.758972,1.952789 -3.518005,3.90564 -5.277039,5.858337z" id="path28562" stroke-opacity="0.503817" stroke-miterlimit="4" stroke-width="2.156311" fill-rule="evenodd" fill="url(#linearGradient4473)"/>
   <path d="m105.69735,444.909973c-2.378754,-34.87973 -5.649506,-59.949646 30.328896,-91.559418c60.955063,-51.956299 30.923508,-82.112762 -7.13623,-136.249069c11.299011,53.772903 -6.838875,96.645981 -22.300667,125.349136c-10.109589,17.803253 -45.195923,54.136322 -0.891998,102.459351z" id="path15989" stroke-opacity="0.503817" stroke-miterlimit="4" stroke-width="2.156311" stroke="yellow" fill-rule="evenodd" fill="url(#linearGradient4470)"/>
   <path d="m127.972771,208.088959c6.5951,36.657791 -0.197327,75.275452 -15.378845,107.480469c-9.425262,22.140717 -28.008057,39.097351 -29.778778,65.439667c-2.840363,22.955048 10.695526,42.088196 23.238647,56.921722c5.1091,7.849884 0.72995,-10.707825 1.425323,-15.051971c-2.038483,-22.582825 1.131317,-47.921631 16.044861,-63.412476c16.603645,-19.737701 40.284538,-33.419861 48.237663,-61.788727c5.379395,-25.05423 -8.954773,-47.511551 -21.457031,-65.302292c-7.540039,-11.179443 -15.489441,-21.900223 -23.39373,-32.700531c0.353943,2.804703 0.707886,5.609421 1.06189,8.414139z" id="path26055" stroke-opacity="0.503817" stroke-miterlimit="4" stroke-width="2.156311" fill-rule="evenodd" fill="url(#linearGradient4463)"/>
   <path d="m98.010979,175.565582c0.652679,17.335007 4.686127,34.501007 2.839111,51.998795c-1.629242,40.849503 -16.318085,79.264267 -36.596558,111.241684c-3.761841,6.531525 -7.768372,12.845215 -11.644714,19.275574c-5.183563,-21.103333 -2.843506,-43.858093 4.137878,-63.884155c3.676453,-10.700531 6.256805,-21.806824 7.606812,-33.310944c-19.379425,21.602356 -33.056183,51.049377 -37.872711,82.568634c-3.904114,29.151489 4.488525,59.122528 20.315979,81.031158c19.900787,28.688446 48.514771,44.808533 76.248138,59.217468c-15.715027,-27.010742 -37.591614,-51.38324 -42.237549,-85.509247c-3.186768,-19.815643 3.198914,-39.704254 13.848877,-54.519714c12.190704,-20.465668 19.783325,-44.81076 24.293762,-69.384338c5.857727,-32.003616 1.162048,-66.608139 -13.15213,-94.36058c-3.532166,-3.155167 -9.843628,-19.734039 -7.786896,-4.364334z" id="path26054" stroke-opacity="0.503817" stroke-miterlimit="4" stroke-width="2.156311" fill-rule="evenodd" fill="url(#linearGradient4504)"/>
  </g>
  <g id="svg_3">
   <path id="svg_4" d="m269.144897,262.865631c16.462891,-16.434418 12.234772,-23.199097 9.545898,-34.514313c-5.719757,-5.216263 0.135162,-12.606598 4.820587,-32.561371c-14.991241,18.18718 -34.337921,21.212311 -14.366486,67.075684z" stroke-opacity="0.503817" stroke-miterlimit="4" stroke-width="2.156311" stroke="yellow" fill-rule="evenodd" fill="#ffd700"/>
   <path id="svg_5" d="m279.560852,192.288162c-9.585999,10.867538 -24.122681,20.895554 -23.360748,35.957764c-0.103241,12.523544 5.59021,24.207748 9.846252,35.957748c8.690735,-8.600555 17.937042,-19.522491 14.069031,-31.641617c0.02652,-4.795013 -3.8479,-8.517715 -3.959564,-13.046509c2.11792,-10.689987 6.499969,-21.016129 8.231598,-31.802307c-1.608856,1.524963 -3.217712,3.049942 -4.826569,4.574921z" stroke-opacity="0.503817" stroke-miterlimit="4" stroke-width="2.156311" fill-rule="evenodd" fill="url(#linearGradient4466)"/>
   <path id="svg_6" d="m201.409821,391.802643c19.921631,51.0401 51.440155,78.10672 107.934784,81.20047c62.144592,17.270874 119.829407,-18.044617 103.475037,-73.466675c-7.433533,11.857697 -12.190979,18.302155 -24.976074,21.652893c5.054443,-30.675476 -27.355835,-35.831146 -11.596924,-68.826599c11.002136,-20.364655 17.543213,-45.368774 -1.78363,-65.733429c-8.02832,23.200317 -17.840942,38.666779 -37.465515,55.680145c2.08136,-28.355408 19.327515,-51.298157 8.920776,-78.106689c1.486633,-18.044632 -32.707977,-17.528992 -33.005066,-72.693558c-21.705933,23.715576 -30.923767,42.017822 -27.652893,78.106766c-8.02832,29.12912 -27.652893,39.698029 -24.084961,71.146606c-2.973145,-17.528992 -5.054504,-32.737915 -0.891815,-45.626282c-2.379059,-15.982697 -4.757477,-29.644775 -23.192474,-40.986816c5.649231,19.84845 12.190979,49.750732 -7.136536,57.22644c-5.352203,9.537659 -32.112823,42.275574 -2.676117,93.573761c-8.622406,-4.382538 -17.245697,-5.671326 -25.868591,-13.147034l0,0z" stroke-opacity="0.503817" stroke-miterlimit="4" stroke-width="2.156311" stroke="yellow" fill-rule="evenodd" fill="url(#linearGradient4515)"/>
   <path id="svg_7" d="m306.445007,202.615265c-15.437622,17.572327 -21.984741,40.013168 -20.016754,61.894775c1.470673,10.700317 -5.0914,20.662109 -9.762939,30.220764c-8.590302,14.248627 -16.361084,29.809601 -14.012115,46.272552c-0.677551,9.486115 -5.538818,-0.078186 -5.026917,-4.849426c-2.328094,-13.421509 -3.323761,-27.339813 -0.148132,-40.635437c-1.600586,-12.937988 -5.380951,-26.962799 -17.704498,-35.465668c3.659485,15.357452 8.414612,32.666443 -0.418335,47.339294c-3.169098,4.915649 -10.257965,6.259735 -11.739594,12.162506c-14.871277,22.58493 -15.991791,50.742218 -4.701294,74.652252c2.34967,5.44577 5.41449,10.644409 8.074799,15.981415c-8.286102,-4.101715 -17.379303,-6.885315 -25.387909,-11.381531c11.093384,28.160492 32.187195,55.863922 65.486237,66.823151c13.09491,4.833069 27.374969,5.730133 41.210052,7.638031c30.324341,8.207031 67.955627,2.814453 87.962341,-20.062744c11.754822,-13.235474 15.020264,-31.097198 11.018738,-47.229156c-5.295166,9.284393 -14.470703,16.808929 -26.321045,19.192383c2.726624,-11.919891 -1.424561,-23.847992 -8.527893,-34.043488c-7.668152,-10.878845 -9.471069,-24.630829 -3.351501,-36.384583c9.284973,-17.643402 16.302979,-38.994049 5.489563,-57.35672c-3.346375,-8.476898 -5.702148,-3.273254 -7.397522,2.730865c-7.070007,18.854309 -21.346497,34.893341 -37.503235,48.647095c1.118774,-19.234985 8.859863,-37.434326 12.149658,-56.342743c1.878479,-9.632568 -0.279419,-19.298584 -2.605591,-28.62674c-1.583496,-10.481812 -14.184387,-15.858704 -19.500854,-24.834641c-9.474365,-11.93811 -12.625549,-26.775909 -13.17868,-41.028702c-1.362213,1.562149 -2.724396,3.124329 -4.086578,4.686493z" stroke-opacity="0.503817" stroke-miterlimit="4" stroke-width="2.156311" fill-rule="evenodd" fill="url(#linearGradient4498)"/>
   <path id="svg_8" d="m303.100769,465.269592c-47.277344,-43.306763 -55.305603,-73.466766 -24.084686,-102.080139c35.086334,-54.133423 26.463409,-88.160156 0.892029,-120.640182c24.084686,71.92009 -28.544861,118.320114 -45.493317,139.20015c-10.109619,-27.06662 -1.486725,-38.666718 12.488403,-71.920044c-27.355499,25.777802 -44.006653,56.968933 -33.897034,86.613434c18.435211,44.595612 61.847107,54.391205 90.094604,68.826782z" stroke-opacity="0.503817" stroke-miterlimit="4" stroke-width="2.156311" stroke="yellow" fill-rule="evenodd" fill="url(#linearGradient4512)"/>
   <path id="svg_9" d="m360.476379,301.645447c-6.337463,-15.979614 -1.165771,-19.401764 4.38562,-26.382813c5.726624,-1.933624 3.971375,-8.675507 7.096375,-23.690002c4.731445,16.758484 17.433716,24.378326 -11.481995,50.072815z" stroke-opacity="0.503817" stroke-miterlimit="4" stroke-width="2.156311" stroke="yellow" fill-rule="evenodd" fill="#ffd700"/>
   <path id="svg_10" d="m367.597961,248.944641c-1.927002,7.123749 -1.055847,14.974548 -4.633545,21.619293c-8.38269,5.551819 -12.037903,15.868073 -8.362122,24.622894c1.141174,7.337646 3.788513,8.603577 8.481445,1.903107c10.02063,-8.939423 19.396484,-21.747711 13.690735,-34.556732c-2.574463,-6.533264 -4.828735,-13.165985 -7.69635,-19.614075c-0.493408,2.008514 -0.986755,4.017014 -1.480164,6.025513z" stroke-opacity="0.503817" stroke-miterlimit="4" stroke-width="2.156311" fill-rule="evenodd" fill="url(#linearGradient4501)"/>
   <path id="svg_11" d="m401.223633,399.536194c16.35376,-13.662262 13.083008,-19.591217 11.596252,-29.386719c-4.757446,-4.639984 1.189392,-10.826721 7.136292,-27.840057c-15.16449,15.208923 -33.005005,17.271179 -18.732544,57.226776z" stroke-opacity="0.503817" stroke-miterlimit="4" stroke-width="2.156311" stroke="yellow" fill-rule="evenodd" fill="#ffd700"/>
   <path id="svg_12" d="m324.509399,465.269592c18.435181,-9.022247 23.48999,-37.377838 25.868713,-68.826782c4.460144,-30.417816 13.380432,-60.835632 72.25415,-65.733429c-24.084778,16.755646 -43.70929,37.377838 -34.789001,75.786835c-2.378784,55.937836 -50.250854,53.87561 -63.333862,58.773376z" stroke-opacity="0.503817" stroke-miterlimit="4" stroke-width="2.156311" stroke="yellow" fill-rule="evenodd" fill="url(#linearGradient4479)"/>
   <path id="svg_13" d="m415.848389,326.265778c-25.104736,3.085876 -50.981567,16.161377 -58.349854,38.36969c-11.824402,27.759308 -5.290466,59.353729 -21.417725,86.017975c-6.124573,2.307556 -4.627319,12.206604 2.936462,10.269775c22.154907,-3.482452 43.182068,-16.825897 48.795105,-36.408417c5.413574,-13.598633 2.343872,-27.984955 1.768005,-41.952972c0.736633,-20.25766 14.266235,-38.525543 32.027771,-51.023682c3.109131,-3.882202 -2.076477,-5.18811 -5.759766,-5.272369z" stroke-opacity="0.503817" stroke-miterlimit="4" stroke-width="2.156311" fill-rule="evenodd" fill="url(#linearGradient4476)"/>
   <path id="svg_14" d="m416.153503,336.871918c-10.116516,9.283813 -24.79303,17.972168 -24.438904,32.246246c-0.747742,10.226837 3.453003,19.97757 6.065674,29.794128c8.781738,-7.264984 18.763794,-16.728607 15.546997,-28.185608c-0.022888,-5.048401 -4.411743,-9.464508 -0.966187,-14.383392c3.309204,-7.789063 6.770996,-15.539612 9.069458,-23.627808c-1.758972,1.385498 -3.518005,2.771027 -5.277039,4.156433z" stroke-opacity="0.503817" stroke-miterlimit="4" stroke-width="2.156311" fill-rule="evenodd" fill="url(#linearGradient4473)"/>
   <path id="svg_15" d="m292.396454,444.389587c-2.378754,-24.746704 -5.649506,-42.533447 30.328888,-64.960144c60.955078,-36.862244 30.923523,-58.257843 -7.13623,-96.666779c11.299011,38.151093 -6.838898,68.568939 -22.300659,88.933441c-10.109589,12.631165 -45.195923,38.408966 -0.891998,72.693481z" stroke-opacity="0.503817" stroke-miterlimit="4" stroke-width="2.156311" stroke="yellow" fill-rule="evenodd" fill="url(#linearGradient4470)"/>
   <path id="svg_16" d="m314.671875,276.368378c6.595093,26.008209 -0.197327,53.406891 -15.378845,76.25589c-9.425262,15.708527 -28.008057,27.739014 -29.778778,46.428528c-2.840363,16.286285 10.695526,29.860992 23.238647,40.385162c5.1091,5.569366 0.72995,-7.597046 1.425323,-10.679138c-2.038483,-16.022217 1.131317,-33.999756 16.044861,-44.990265c16.603638,-14.003632 40.284546,-23.710938 48.237671,-43.838257c5.379395,-17.775604 -8.954773,-33.708771 -21.457031,-46.331055c-7.540039,-7.931641 -15.489441,-15.537903 -23.393738,-23.200562c0.353943,1.989899 0.707886,3.979797 1.06189,5.969696z" stroke-opacity="0.503817" stroke-miterlimit="4" stroke-width="2.156311" fill-rule="evenodd" fill="url(#linearGradient4463)"/>
   <path id="svg_17" d="m284.710083,253.293518c0.652679,12.29895 4.686127,24.477966 2.839111,36.892426c-1.629242,28.982147 -16.318085,56.236877 -36.596558,78.924408c-3.761841,4.634003 -7.768372,9.113495 -11.644714,13.675751c-5.183563,-14.972534 -2.843506,-31.11673 4.137878,-45.324921c3.676453,-7.591888 6.256805,-15.471619 7.606812,-23.633667c-19.379425,15.326569 -33.056183,36.218811 -37.872711,58.581299c-3.904114,20.682587 4.488525,41.946625 20.315979,57.490448c19.900787,20.354065 48.514771,31.791046 76.248138,42.014008c-15.715027,-19.163757 -37.591614,-36.455719 -42.237549,-60.667633c-3.186768,-14.058929 3.198914,-28.169617 13.848877,-38.680969c12.190704,-14.520111 19.783325,-31.792603 24.293762,-49.227203c5.857727,-22.706116 1.162048,-47.257538 -13.15213,-66.94751c-3.532166,-2.238556 -9.843628,-14.001038 -7.786896,-3.096436z" stroke-opacity="0.503817" stroke-miterlimit="4" stroke-width="2.156311" fill-rule="evenodd" fill="url(#linearGradient4504)"/>
  </g>
  <g transform="rotate(28.663333892822266 531.5327148437501,290.2743530273437) " id="svg_18">
   <path id="svg_19" d="m487.169739,186.849838c16.462891,-22.327148 12.234772,-31.517365 9.545898,-46.889786c-5.719757,-7.086594 0.135162,-17.126816 4.820587,-44.236603c-14.991241,24.708397 -34.337921,28.818207 -14.366486,91.126389z" stroke-opacity="0.503817" stroke-miterlimit="4" stroke-width="2.156311" stroke="yellow" fill-rule="evenodd" fill="#ffd700"/>
   <path id="svg_20" d="m497.585693,90.966064c-9.585999,14.764214 -24.122681,28.387878 -23.360748,48.850815c-0.103241,17.013992 5.59021,32.88768 9.846252,48.8508c8.690735,-11.684402 17.937042,-26.522507 14.069031,-42.987061c0.02652,-6.514328 -3.8479,-11.571838 -3.959564,-17.724487c2.11792,-14.522995 6.499969,-28.551697 8.231598,-43.205376c-1.608856,2.071762 -3.217712,4.143547 -4.826569,6.215309z" stroke-opacity="0.503817" stroke-miterlimit="4" stroke-width="2.156311" fill-rule="evenodd" fill="url(#linearGradient4466)"/>
   <path id="svg_21" d="m419.434662,362.018616c19.921631,69.341064 51.440155,106.112732 107.934784,110.315796c62.144592,23.463531 119.829407,-24.514709 103.475037,-99.808929c-7.433533,16.109375 -12.190979,24.864563 -24.976074,29.416748c5.054443,-41.674469 -27.355835,-48.678772 -11.596924,-93.505127c11.002136,-27.666595 17.543213,-61.636246 -1.78363,-89.302841c-8.02832,31.519028 -17.840942,52.531174 -37.465515,75.644852c2.08136,-38.522522 19.327515,-69.691681 8.920776,-106.112701c1.486633,-24.514709 -32.707947,-23.814194 -33.005066,-98.758614c-21.705933,32.219063 -30.923767,57.083778 -27.652893,106.112785c-8.02832,39.5737 -27.652893,53.932175 -24.084961,96.656998c-2.973145,-23.814209 -5.054504,-44.476456 -0.891815,-61.986084c-2.379059,-21.713455 -4.757477,-40.274216 -23.192474,-55.68306c5.649231,26.965317 12.190979,67.589386 -7.136536,77.74559c-5.352203,12.957489 -32.112823,57.43396 -2.676117,127.125641c-8.622406,-5.953918 -17.245697,-7.704834 -25.868591,-17.861053l0,0z" stroke-opacity="0.503817" stroke-miterlimit="4" stroke-width="2.156311" stroke="yellow" fill-rule="evenodd" fill="url(#linearGradient4515)"/>
   <path id="svg_22" d="m524.469849,104.996071c-15.437622,23.873085 -21.984741,54.360313 -20.016754,84.087807c1.470673,14.537033 -5.0914,28.07074 -9.762939,41.056747c-8.590302,19.357635 -16.361084,40.498169 -14.012115,62.864075c-0.677551,12.887482 -5.538818,-0.106201 -5.026917,-6.588226c-2.328094,-18.233948 -3.323761,-37.142792 -0.148132,-55.205734c-1.600586,-17.577042 -5.380951,-36.630585 -17.704498,-48.182236c3.659485,20.864029 8.414612,44.379333 -0.418335,64.313293c-3.169098,6.678192 -10.257965,8.504242 -11.739594,16.523499c-14.871277,30.683014 -15.991791,68.936401 -4.701294,101.419647c2.34967,7.398407 5.41449,14.46106 8.074799,21.7117c-8.286102,-5.572418 -17.379303,-9.354095 -25.387909,-15.462463c11.093384,38.25769 32.187195,75.894501 65.486237,90.783264c13.09491,6.56604 27.374969,7.78476 41.210052,10.37677c30.324341,11.14975 67.955627,3.823578 87.962341,-27.25647c11.754822,-17.981201 15.020264,-42.247437 11.018738,-64.163696c-5.295166,12.613403 -14.470703,22.835968 -26.321045,26.074005c2.726624,-16.193878 -1.424561,-32.398895 -8.527893,-46.250153c-7.668152,-14.779541 -9.471069,-33.462463 -3.351501,-49.430664c9.284973,-23.969635 16.302979,-52.975769 5.489563,-77.922546c-3.346375,-11.516388 -5.702148,-4.44696 -7.397522,3.710022c-7.070007,25.614746 -21.346497,47.404724 -37.503235,66.090057c1.118774,-26.131927 8.859863,-50.856842 12.149658,-76.545074c1.878479,-13.086411 -0.279419,-26.218292 -2.605591,-38.891144c-1.583496,-14.240204 -14.184387,-21.545029 -19.500854,-33.739395c-9.474365,-16.218628 -12.625549,-36.376694 -13.17865,-55.73999c-1.362244,2.122284 -2.724426,4.244606 -4.086609,6.366905z" stroke-opacity="0.503817" stroke-miterlimit="4" stroke-width="2.156311" fill-rule="evenodd" fill="url(#linearGradient4498)"/>
   <path id="svg_23" d="m521.12561,461.827972c-47.277344,-58.8349 -55.305603,-99.809113 -24.084686,-138.682098c35.086334,-73.543549 26.463409,-119.770935 0.892029,-163.897018c24.084686,97.707809 -28.544861,160.745071 -45.493317,189.111862c-10.109619,-36.771667 -1.486725,-52.531097 12.488403,-97.707764c-27.355499,35.020691 -44.006653,77.395752 -33.897034,117.669617c18.435211,60.585876 61.847107,73.893799 90.094604,93.505402z" stroke-opacity="0.503817" stroke-miterlimit="4" stroke-width="2.156311" stroke="yellow" fill-rule="evenodd" fill="url(#linearGradient4512)"/>
   <path id="svg_24" d="m578.501221,239.534592c-6.337463,-21.709274 -1.165771,-26.358459 4.38562,-35.842636c5.726624,-2.626953 3.971375,-11.786224 7.096375,-32.184326c4.731445,22.767426 17.433716,33.119415 -11.481995,68.026962z" stroke-opacity="0.503817" stroke-miterlimit="4" stroke-width="2.156311" stroke="yellow" fill-rule="evenodd" fill="#ffd700"/>
   <path id="svg_25" d="m585.622803,167.937347c-1.927002,9.678024 -1.055847,20.343826 -4.633545,29.371109c-8.38269,7.542511 -12.037903,21.557739 -8.362122,33.451706c1.141174,9.968658 3.788513,11.688492 8.481445,2.58548c10.02063,-12.14473 19.396484,-29.545593 13.690735,-46.947418c-2.574463,-8.875839 -4.828735,-17.88678 -7.69635,-26.646896c-0.493408,2.728668 -0.986755,5.457352 -1.480164,8.18602z" stroke-opacity="0.503817" stroke-miterlimit="4" stroke-width="2.156311" fill-rule="evenodd" fill="url(#linearGradient4501)"/>
   <path id="svg_26" d="m619.248474,372.525116c16.35376,-18.561005 13.083008,-26.615845 11.596252,-39.923615c-4.757446,-6.303741 1.189392,-14.708771 7.136292,-37.822418c-15.16449,20.662231 -33.005005,23.463928 -18.732544,77.746033z" stroke-opacity="0.503817" stroke-miterlimit="4" stroke-width="2.156311" stroke="yellow" fill-rule="evenodd" fill="#ffd700"/>
   <path id="svg_27" d="m542.534241,461.827972c18.435181,-12.257263 23.48999,-50.78009 25.868713,-93.505402c4.460144,-41.324463 13.380432,-82.648926 72.25415,-89.302826c-24.084778,22.763519 -43.70929,50.780029 -34.789001,102.960999c-2.378784,75.994965 -50.250854,73.193298 -63.333862,79.847229z" stroke-opacity="0.503817" stroke-miterlimit="4" stroke-width="2.156311" stroke="yellow" fill-rule="evenodd" fill="url(#linearGradient4479)"/>
   <path id="svg_28" d="m633.87323,272.982788c-25.104736,4.192352 -50.981567,21.956238 -58.349854,52.127594c-11.824402,37.712677 -5.290466,80.635651 -21.417725,116.860626c-6.124573,3.134949 -4.627319,16.583435 2.936462,13.952148c22.154907,-4.731171 43.182068,-22.859009 48.795105,-49.463043c5.413574,-18.474579 2.343872,-38.019287 1.768005,-56.995667c0.736633,-27.521301 14.266235,-52.339294 32.027771,-69.318817c3.109131,-5.2742 -2.076477,-7.04837 -5.759766,-7.162842z" stroke-opacity="0.503817" stroke-miterlimit="4" stroke-width="2.156311" fill-rule="evenodd" fill="url(#linearGradient4476)"/>
   <path id="svg_29" d="m634.178345,287.391876c-10.116516,12.612671 -24.79303,24.41629 -24.438904,43.808502c-0.747742,13.893799 3.453003,27.140747 6.065674,40.477142c8.781738,-9.869904 18.763794,-22.726837 15.546997,-38.29187c-0.022888,-6.858551 -4.411743,-12.858093 -0.966187,-19.54068c3.309204,-10.581909 6.770996,-21.111542 9.069458,-32.099823c-1.758972,1.882263 -3.518005,3.764587 -5.277039,5.646729z" stroke-opacity="0.503817" stroke-miterlimit="4" stroke-width="2.156311" fill-rule="evenodd" fill="url(#linearGradient4473)"/>
   <path id="svg_30" d="m510.421295,433.461182c-2.378754,-33.619873 -5.649506,-57.784271 30.328888,-88.252289c60.955078,-50.07962 30.923523,-79.146851 -7.13623,-131.327728c11.299011,51.830627 -6.838928,93.155121 -22.300659,120.821503c-10.109589,17.160217 -45.195923,52.180939 -0.891998,98.758514z" stroke-opacity="0.503817" stroke-miterlimit="4" stroke-width="2.156311" stroke="yellow" fill-rule="evenodd" fill="url(#linearGradient4470)"/>
   <path id="svg_31" d="m532.696716,205.194168c6.595093,35.33371 -0.197327,72.556503 -15.378845,103.598282c-9.425262,21.340973 -28.008057,37.68512 -29.778778,63.075958c-2.840363,22.125916 10.695526,40.567963 23.238647,54.865692c5.1091,7.566345 0.72995,-10.321045 1.425323,-14.50827c-2.038483,-21.767151 1.131287,-46.190704 16.044861,-61.122009c16.603638,-19.02478 40.284546,-32.212738 48.237671,-59.556915c5.379395,-24.149261 -8.954773,-45.795441 -21.457031,-62.943558c-7.540039,-10.77565 -15.489441,-21.109192 -23.393738,-31.519394c0.353943,2.7034 0.707886,5.406815 1.06189,8.110214z" stroke-opacity="0.503817" stroke-miterlimit="4" stroke-width="2.156311" fill-rule="evenodd" fill="url(#linearGradient4463)"/>
   <path id="svg_32" d="m502.734924,173.845551c0.652679,16.708862 4.686127,33.254822 2.839111,50.12059c-1.629242,39.374008 -16.318085,76.40123 -36.596558,107.223618c-3.761841,6.295593 -7.768372,12.381256 -11.644714,18.579346c-5.183563,-20.341095 -2.843506,-42.273956 4.137878,-61.57666c3.676453,-10.314026 6.256805,-21.019135 7.606812,-32.107758c-19.379425,20.822083 -33.056183,49.205475 -37.872711,79.586243c-3.904114,28.098541 4.488525,56.98703 20.315979,78.104309c19.900787,27.652222 48.514771,43.190033 76.248138,57.078522c-15.715027,-26.035095 -37.591614,-49.527283 -42.237549,-82.420624c-3.186768,-19.099915 3.198914,-38.270142 13.848877,-52.550476c12.190704,-19.72644 19.783325,-43.192169 24.293762,-66.878143c5.857727,-30.847641 1.162048,-64.20224 -13.15213,-90.952271c-3.532166,-3.041199 -9.843628,-19.021255 -7.786896,-4.206696z" stroke-opacity="0.503817" stroke-miterlimit="4" stroke-width="2.156311" fill-rule="evenodd" fill="url(#linearGradient4504)"/>
  </g>
  <g id="svg_33" transform="rotate(-18.05183219909668 235.92317199707048,338.8137817382813) ">
   <path id="svg_34" d="m191.560211,258.235718c16.462891,-17.39505 12.234741,-24.555161 9.545898,-36.531799c-5.719757,-5.521179 0.135132,-13.343521 4.820557,-34.464767c-14.991211,19.250336 -34.337891,22.452286 -14.366455,70.996567z" stroke-opacity="0.503817" stroke-miterlimit="4" stroke-width="2.156311" stroke="yellow" fill-rule="evenodd" fill="#ffd700"/>
   <path id="svg_35" d="m201.976166,183.532684c-9.585999,11.502808 -24.122681,22.117004 -23.360748,38.059677c-0.103241,13.2556 5.59021,25.622803 9.846252,38.059647c8.690735,-9.103302 17.937042,-20.663666 14.069,-33.491211c0.02655,-5.075317 -3.84787,-9.01561 -3.959534,-13.809143c2.11792,-11.314865 6.5,-22.244629 8.231628,-33.661316c-1.608887,1.61412 -3.217773,3.228241 -4.826599,4.842346z" stroke-opacity="0.503817" stroke-miterlimit="4" stroke-width="2.156311" fill-rule="evenodd" fill="url(#linearGradient4466)"/>
   <path id="svg_36" d="m123.825142,394.709747c19.921623,54.023621 51.440147,82.672424 107.934776,85.947052c62.144592,18.280426 119.829407,-19.099426 103.475037,-77.761169c-7.433533,12.550842 -12.190979,19.371979 -24.976074,22.918579c5.054443,-32.468567 -27.355835,-37.925629 -11.596924,-72.849823c11.002136,-21.555054 17.543213,-48.020813 -1.78363,-69.575867c-8.02832,24.556488 -17.840942,40.927032 -37.465515,58.934906c2.08136,-30.012878 19.327515,-54.296783 8.920776,-82.672394c1.486633,-19.099411 -32.707947,-18.553635 -33.005066,-76.942841c-21.705933,25.101868 -30.923767,44.473969 -27.652893,82.672455c-8.02832,30.831879 -27.652893,42.018585 -24.084961,75.305481c-2.973145,-18.55365 -5.054504,-34.651611 -0.891815,-48.293365c-2.379059,-16.916931 -4.757477,-31.377625 -23.192474,-43.38266c5.649231,21.008667 12.190979,52.658875 -7.136536,60.571594c-5.352203,10.095154 -32.112816,44.746796 -2.676117,99.043579c-8.622406,-4.638702 -17.245697,-6.002808 -25.868584,-13.915527l0,0z" stroke-opacity="0.503817" stroke-miterlimit="4" stroke-width="2.156311" stroke="yellow" fill-rule="evenodd" fill="url(#linearGradient4515)"/>
   <path id="svg_37" d="m228.860321,194.46347c-15.437622,18.599518 -21.984741,42.352127 -20.016785,65.512817c1.470703,11.325775 -5.09137,21.869904 -9.762909,31.987305c-8.590302,15.081543 -16.361084,31.552124 -14.012115,48.977386c-0.677551,10.040649 -5.538818,-0.082733 -5.026917,-5.132874c-2.328094,-14.206085 -3.323761,-28.937958 -0.148132,-43.010803c-1.600586,-13.694275 -5.380951,-28.538879 -17.704498,-37.538773c3.659485,16.255173 8.414612,34.575943 -0.418335,50.106491c-3.169098,5.202972 -10.257965,6.625641 -11.739594,12.873444c-14.871277,23.905151 -15.991791,53.708374 -4.701294,79.016052c2.34967,5.76413 5.41449,11.266632 8.074799,16.915619c-8.286102,-4.341492 -17.379303,-7.287811 -25.387909,-12.046814c11.093384,29.80658 32.187195,59.129425 65.486237,70.729248c13.09494,5.115601 27.374969,6.065125 41.210052,8.084534c30.324341,8.686768 67.955627,2.978943 87.962341,-21.235504c11.754822,-14.009186 15.020264,-32.915009 11.018738,-49.989929c-5.295166,9.827087 -14.470703,17.791473 -26.321045,20.31424c2.726624,-12.616638 -1.424561,-25.242004 -8.527893,-36.033478c-7.668152,-11.514771 -9.471069,-26.070618 -3.351501,-38.511444c9.284973,-18.674744 16.302979,-41.273438 5.489563,-60.709473c-3.346375,-8.972412 -5.702148,-3.46463 -7.397522,2.890472c-7.070007,19.956451 -21.346497,36.933044 -37.503235,51.490784c1.118774,-20.359406 8.859863,-39.622589 12.149658,-59.636292c1.878479,-10.195618 -0.279419,-20.426666 -2.605591,-30.300079c-1.583496,-11.094528 -14.184387,-16.785721 -19.500854,-26.286362c-9.474365,-12.635925 -12.625549,-28.34108 -13.17865,-43.427032c-1.362244,1.653473 -2.724426,3.306976 -4.086609,4.960464z" stroke-opacity="0.503817" stroke-miterlimit="4" stroke-width="2.156311" fill-rule="evenodd" fill="url(#linearGradient4498)"/>
   <path id="svg_38" d="m225.516083,472.471222c-47.277344,-45.838287 -55.305603,-77.761292 -24.084656,-108.047241c35.086304,-57.297791 26.463379,-93.313538 0.892029,-127.692169c24.084656,76.124146 -28.544891,125.236481 -45.493347,147.337067c-10.109619,-28.648834 -1.486725,-40.926971 12.488403,-76.124146c-27.355499,27.284637 -44.006645,60.299042 -33.897034,91.676422c18.435211,47.202454 61.847107,57.570648 90.094604,72.850067z" stroke-opacity="0.503817" stroke-miterlimit="4" stroke-width="2.156311" stroke="yellow" fill-rule="evenodd" fill="url(#linearGradient4512)"/>
   <path id="svg_39" d="m282.891693,299.28244c-6.337463,-16.913696 -1.165771,-20.535889 4.38562,-27.925018c5.726624,-2.046661 3.971375,-9.182648 7.096375,-25.074783c4.731445,17.738083 17.433716,25.803329 -11.481995,52.999802z" stroke-opacity="0.503817" stroke-miterlimit="4" stroke-width="2.156311" stroke="yellow" fill-rule="evenodd" fill="#ffd700"/>
   <path id="svg_40" d="m290.013275,243.501022c-1.927002,7.540146 -1.055847,15.849869 -4.633545,22.883011c-8.38269,5.876373 -12.037903,16.795654 -8.362122,26.062225c1.141174,7.766602 3.788513,9.106506 8.481445,2.014374c10.02063,-9.461975 19.396484,-23.018982 13.690735,-36.576752c-2.574463,-6.915161 -4.828735,-13.935577 -7.69635,-20.76059c-0.493408,2.125916 -0.986755,4.251816 -1.480164,6.377731z" stroke-opacity="0.503817" stroke-miterlimit="4" stroke-width="2.156311" fill-rule="evenodd" fill="url(#linearGradient4501)"/>
   <path id="svg_41" d="m323.638947,402.895355c16.35376,-14.460876 13.083008,-20.73642 11.596252,-31.104492c-4.757446,-4.911224 1.189392,-11.459595 7.136292,-29.467468c-15.16449,16.097961 -33.005005,18.280762 -18.732544,60.57196z" stroke-opacity="0.503817" stroke-miterlimit="4" stroke-width="2.156311" stroke="yellow" fill-rule="evenodd" fill="#ffd700"/>
   <path id="svg_42" d="m246.924713,472.471222c18.435181,-9.549652 23.48999,-39.562775 25.868713,-72.850067c4.460144,-32.195892 13.380432,-64.391785 72.25415,-69.575867c-24.084778,17.735107 -43.70929,39.562744 -34.789001,80.216949c-2.378784,59.207672 -50.250854,57.024902 -63.333862,62.208984z" stroke-opacity="0.503817" stroke-miterlimit="4" stroke-width="2.156311" stroke="yellow" fill-rule="evenodd" fill="url(#linearGradient4479)"/>
   <path id="svg_43" d="m338.263702,325.341919c-25.104736,3.266266 -50.981567,17.10611 -58.349854,40.61261c-11.824402,29.381958 -5.290466,62.823242 -21.417725,91.046112c-6.124573,2.442474 -4.627319,12.920166 2.936462,10.870117c22.154907,-3.686035 43.182068,-17.809448 48.795105,-38.536652c5.413574,-14.393555 2.343872,-29.620819 1.768005,-44.405334c0.736633,-21.441833 14.266235,-40.777557 32.027771,-54.006287c3.109131,-4.109131 -2.076477,-5.491364 -5.759766,-5.580566z" stroke-opacity="0.503817" stroke-miterlimit="4" stroke-width="2.156311" fill-rule="evenodd" fill="url(#linearGradient4476)"/>
   <path id="svg_44" d="m338.568817,336.568054c-10.116516,9.826508 -24.79303,19.022736 -24.438904,34.131195c-0.747742,10.824677 3.453003,21.145355 6.065674,31.535736c8.781738,-7.689636 18.763794,-17.706451 15.546997,-29.833191c-0.022888,-5.343475 -4.411743,-10.017761 -0.966187,-15.224152c3.309204,-8.244385 6.770996,-16.447998 9.069458,-25.008972c-1.758972,1.466461 -3.518005,2.932983 -5.277039,4.399384z" stroke-opacity="0.503817" stroke-miterlimit="4" stroke-width="2.156311" fill-rule="evenodd" fill="url(#linearGradient4473)"/>
   <path id="svg_45" d="m214.811798,450.370636c-2.378784,-26.193237 -5.649536,-45.019714 30.328857,-68.757355c60.955078,-39.017029 30.923523,-61.6633 -7.13623,-102.317444c11.299011,40.381226 -6.838928,72.577148 -22.300659,94.13205c-10.109619,13.369507 -45.195923,40.654144 -0.891968,76.942749z" stroke-opacity="0.503817" stroke-miterlimit="4" stroke-width="2.156311" stroke="yellow" fill-rule="evenodd" fill="url(#linearGradient4470)"/>
   <path id="svg_46" d="m237.087189,272.527802c6.595093,27.528503 -0.197327,56.528778 -15.378845,80.713409c-9.425232,16.62677 -28.008057,29.360504 -29.778778,49.142487c-2.840363,17.238312 10.695526,31.606537 23.238678,42.74588c5.10907,5.894928 0.729919,-8.041138 1.425293,-11.303406c-2.038452,-16.958771 1.131348,-35.987183 16.044861,-47.620148c16.603638,-14.822205 40.284546,-25.096954 48.237671,-46.400818c5.379395,-18.814667 -8.954773,-35.679199 -21.457031,-49.039307c-7.540039,-8.395325 -15.489441,-16.446167 -23.393738,-24.556763c0.353943,2.106232 0.707886,4.212433 1.06189,6.318665z" stroke-opacity="0.503817" stroke-miterlimit="4" stroke-width="2.156311" fill-rule="evenodd" fill="url(#linearGradient4463)"/>
   <path id="svg_47" d="m207.125397,248.104095c0.65271,13.017853 4.686157,25.908844 2.839111,39.04895c-1.629211,30.6763 -16.318085,59.5242 -36.596558,83.537933c-3.761841,4.904877 -7.768372,9.64624 -11.644714,14.475159c-5.183563,-15.847748 -2.843506,-32.935638 4.137878,-47.974396c3.676453,-8.035645 6.256805,-16.376007 7.606812,-25.015137c-19.379425,16.222473 -33.056183,38.335968 -37.872711,62.005646c-3.904114,21.891571 4.488525,44.39859 20.315979,60.851074c19.900787,21.543854 48.51474,33.649353 76.248138,44.46991c-15.715027,-20.283966 -37.591614,-38.586731 -42.237549,-64.213959c-3.186768,-14.880737 3.198914,-29.816254 13.848877,-40.942047c12.190674,-15.368896 19.783325,-33.651031 24.293762,-52.104797c5.857727,-24.033386 1.162048,-50.019958 -13.152161,-70.860886c-3.532104,-2.369415 -9.843567,-14.819458 -7.786865,-3.277451z" stroke-opacity="0.503817" stroke-miterlimit="4" stroke-width="2.156311" fill-rule="evenodd" fill="url(#linearGradient4504)"/>
  </g>
  <g transform="rotate(24.582927703857422 402.9086914062499,332.09191894531256) " id="svg_48">
   <path id="svg_49" d="m358.545746,256.717316c16.462891,-16.27179 12.234772,-22.969528 9.545898,-34.17276c-5.719757,-5.164642 0.135162,-12.481842 4.820587,-32.239166c-14.991241,18.007217 -34.337921,21.002396 -14.366486,66.411926z" stroke-opacity="0.503817" stroke-miterlimit="4" stroke-width="2.156311" stroke="yellow" fill-rule="evenodd" fill="#ffd700"/>
   <path id="svg_50" d="m368.9617,186.838272c-9.585999,10.759995 -24.122681,20.688766 -23.360748,35.601929c-0.103241,12.399597 5.59021,23.968185 9.846252,35.601913c8.690735,-8.515472 17.937042,-19.3293 14.069031,-31.328491c0.02652,-4.747559 -3.8479,-8.433426 -3.959564,-12.917404c2.11792,-10.584198 6.499969,-20.808151 8.231598,-31.487595c-1.608856,1.509872 -3.217712,3.01976 -4.826569,4.529648z" stroke-opacity="0.503817" stroke-miterlimit="4" stroke-width="2.156311" fill-rule="evenodd" fill="url(#linearGradient4466)"/>
   <path id="svg_51" d="m290.810669,384.378357c19.921631,50.535004 51.440155,77.333771 107.934784,80.396942c62.144592,17.099945 119.829437,-17.866058 103.475037,-72.739655c-7.433533,11.740356 -12.190979,18.121002 -24.976074,21.438599c5.054443,-30.371887 -27.355835,-35.476563 -11.596924,-68.145508c11.002136,-20.163086 17.543213,-44.9198 -1.78363,-65.082916c-8.02832,22.970734 -17.840942,38.284119 -37.465515,55.12912c2.08136,-28.074768 19.327515,-50.790497 8.920776,-77.33374c1.486633,-17.866043 -32.707977,-17.355515 -33.005066,-71.974182c-21.705933,23.480896 -30.923767,41.60202 -27.652893,77.333832c-8.02832,28.840851 -27.652893,39.305176 -24.084961,70.442535c-2.973145,-17.35553 -5.054504,-32.41394 -0.891815,-45.174774c-2.379059,-15.824524 -4.757477,-29.35141 -23.192474,-40.581207c5.649231,19.652039 12.190979,49.258392 -7.136536,56.660126c-5.352203,9.443268 -32.112823,41.857239 -2.676117,92.647766c-8.622406,-4.339142 -17.245697,-5.615204 -25.868591,-13.016937l0,0z" stroke-opacity="0.503817" stroke-miterlimit="4" stroke-width="2.156311" stroke="yellow" fill-rule="evenodd" fill="url(#linearGradient4515)"/>
   <path id="svg_52" d="m395.845856,197.063187c-15.437622,17.398422 -21.984741,39.617188 -20.016754,61.282272c1.470673,10.594421 -5.0914,20.457611 -9.762939,29.921692c-8.590302,14.107635 -16.361084,29.514618 -14.012115,45.814636c-0.677551,9.392242 -5.538818,-0.077393 -5.026917,-4.801422c-2.328094,-13.288696 -3.323761,-27.069275 -0.148132,-40.233337c-1.600586,-12.809937 -5.380951,-26.695953 -17.704498,-35.114685c3.659485,15.205475 8.414612,32.34317 -0.418335,46.870819c-3.169098,4.867004 -10.257965,6.197784 -11.739594,12.042145c-14.871277,22.36142 -15.991791,50.240082 -4.701294,73.913513c2.34967,5.391876 5.41449,10.539063 8.074799,15.823242c-8.286102,-4.061096 -17.379303,-6.817169 -25.387909,-11.26889c11.093384,27.881805 32.187195,55.311096 65.486237,66.161865c13.09491,4.785248 27.374969,5.673462 41.210052,7.562469c30.324341,8.125824 67.955627,2.786591 87.962341,-19.864197c11.754822,-13.104523 15.020264,-30.78949 11.018738,-46.76181c-5.295166,9.192505 -14.470703,16.642609 -26.321045,19.002441c2.726624,-11.80191 -1.424561,-23.611969 -8.527893,-33.706573c-7.668152,-10.771179 -9.471069,-24.387085 -3.351501,-36.024536c9.284973,-17.468781 16.302979,-38.608154 5.489563,-56.789093c-3.346375,-8.393005 -5.702148,-3.240875 -7.397522,2.703827c-7.070007,18.667755 -21.346497,34.548035 -37.503235,48.16571c1.118774,-19.044678 8.859863,-37.063904 12.149658,-55.785217c1.878479,-9.537231 -0.279419,-19.107574 -2.605591,-28.343414c-1.583496,-10.378113 -14.184387,-15.701782 -19.500854,-24.588898c-9.474365,-11.819962 -12.625549,-26.510941 -13.17868,-40.622696c-1.362213,1.546707 -2.724396,3.093414 -4.086578,4.640137z" stroke-opacity="0.503817" stroke-miterlimit="4" stroke-width="2.156311" fill-rule="evenodd" fill="url(#linearGradient4498)"/>
   <path id="svg_53" d="m392.501617,457.118286c-47.277344,-42.878204 -55.305603,-72.739746 -24.084686,-101.069977c35.086334,-53.597687 26.463409,-87.287689 0.892029,-119.446304c24.084686,71.208359 -28.544861,117.149216 -45.493317,137.822647c-10.109619,-26.798798 -1.486725,-38.284088 12.488403,-71.208344c-27.355499,25.522705 -44.006653,56.405151 -33.897034,85.756317c18.435211,44.154297 61.847107,53.852966 90.094604,68.14566z" stroke-opacity="0.503817" stroke-miterlimit="4" stroke-width="2.156311" stroke="yellow" fill-rule="evenodd" fill="url(#linearGradient4512)"/>
   <path id="svg_54" d="m449.877228,295.113373c-6.337463,-15.821472 -1.165771,-19.209778 4.38562,-26.121735c5.726624,-1.91449 3.971375,-8.589661 7.096375,-23.455566c4.731445,16.592651 17.433716,24.137054 -11.481995,49.577301z" stroke-opacity="0.503817" stroke-miterlimit="4" stroke-width="2.156311" stroke="yellow" fill-rule="evenodd" fill="#ffd700"/>
   <path id="svg_55" d="m456.99881,242.934082c-1.927002,7.053223 -1.055847,14.826355 -4.633545,21.405334c-8.38269,5.496918 -12.037903,15.71106 -8.362122,24.379242c1.141174,7.265045 3.788513,8.518433 8.481445,1.884277c10.02063,-8.850952 19.396484,-21.532501 13.690735,-34.214783c-2.574463,-6.468597 -4.828735,-13.035675 -7.69635,-19.419952c-0.493408,1.988632 -0.986755,3.977264 -1.480164,5.965881z" stroke-opacity="0.503817" stroke-miterlimit="4" stroke-width="2.156311" fill-rule="evenodd" fill="url(#linearGradient4501)"/>
   <path id="svg_56" d="m490.624481,392.03537c16.35376,-13.527069 13.083008,-19.397308 11.596252,-29.095886c-4.757446,-4.594086 1.189392,-10.719574 7.136292,-27.564545c-15.16449,15.05838 -33.005005,17.10025 -18.732544,56.660431z" stroke-opacity="0.503817" stroke-miterlimit="4" stroke-width="2.156311" stroke="yellow" fill-rule="evenodd" fill="#ffd700"/>
   <path id="svg_57" d="m413.910248,457.118286c18.435181,-8.932953 23.48999,-37.007965 25.868713,-68.14566c4.460144,-30.116821 13.380432,-60.233612 72.254181,-65.082947c-24.084808,16.589844 -43.70932,37.007965 -34.789032,75.036865c-2.378784,55.384277 -50.250854,53.342438 -63.333862,58.191742z" stroke-opacity="0.503817" stroke-miterlimit="4" stroke-width="2.156311" stroke="yellow" fill-rule="evenodd" fill="url(#linearGradient4479)"/>
   <path id="svg_58" d="m505.249237,319.490051c-25.104736,3.055328 -50.981567,16.001434 -58.349854,37.98999c-11.824402,27.484589 -5.290466,58.766357 -21.417725,85.166718c-6.124573,2.284729 -4.627319,12.085846 2.936462,10.168182c22.154907,-3.448029 43.182068,-16.659393 48.795105,-36.048126c5.413574,-13.46405 2.343872,-27.708008 1.768005,-41.537811c0.736633,-20.05719 14.266235,-38.144287 32.027771,-50.518768c3.109161,-3.843781 -2.076477,-5.13678 -5.759766,-5.220184z" stroke-opacity="0.503817" stroke-miterlimit="4" stroke-width="2.156311" fill-rule="evenodd" fill="url(#linearGradient4476)"/>
   <path id="svg_59" d="m505.554352,329.991211c-10.116516,9.191986 -24.79303,17.794342 -24.438904,31.927155c-0.747742,10.125641 3.453003,19.779877 6.065674,29.499298c8.781738,-7.193085 18.763794,-16.563049 15.546997,-27.906677c-0.022888,-4.998444 -4.411743,-9.37085 -0.966187,-14.241058c3.309204,-7.711975 6.770996,-15.385864 9.069458,-23.393982c-1.758972,1.371765 -3.518005,2.743591 -5.277039,4.115265z" stroke-opacity="0.503817" stroke-miterlimit="4" stroke-width="2.156311" fill-rule="evenodd" fill="url(#linearGradient4473)"/>
   <path id="svg_60" d="m381.797302,436.444916c-2.378754,-24.501801 -5.649506,-42.112549 30.328888,-64.317291c60.955078,-36.497467 30.923523,-57.681335 -7.13623,-95.710205c11.299011,37.77359 -6.838898,67.890411 -22.300659,88.053375c-10.109589,12.506165 -45.195923,38.02887 -0.891998,71.974121z" stroke-opacity="0.503817" stroke-miterlimit="4" stroke-width="2.156311" stroke="yellow" fill-rule="evenodd" fill="url(#linearGradient4470)"/>
   <path id="svg_61" d="m404.072723,270.086456c6.595093,25.750793 -0.197327,52.878357 -15.378845,75.501251c-9.425262,15.55307 -28.008057,27.464508 -29.778778,45.969055c-2.840363,16.125122 10.695526,29.565491 23.238647,39.985535c5.1091,5.514252 0.72995,-7.521881 1.425323,-10.573486c-2.038483,-15.863647 1.131317,-33.663269 16.044861,-44.545044c16.603638,-13.865051 40.284546,-23.476288 48.237671,-43.404419c5.379395,-17.599701 -8.954773,-33.375183 -21.457031,-45.872559c-7.540039,-7.85318 -15.489441,-15.384155 -23.393738,-22.970978c0.353943,1.970215 0.707886,3.94043 1.06189,5.910645z" stroke-opacity="0.503817" stroke-miterlimit="4" stroke-width="2.156311" fill-rule="evenodd" fill="url(#linearGradient4463)"/>
   <path id="svg_62" d="m374.110931,247.239929c0.652679,12.177216 4.686127,24.235748 2.839111,36.527313c-1.629242,28.695343 -16.318085,55.680389 -36.596558,78.143402c-3.761841,4.588135 -7.768372,9.023315 -11.644714,13.540405c-5.183563,-14.824371 -2.843506,-30.808777 4.137878,-44.876404c3.676453,-7.516724 6.256805,-15.318512 7.606812,-23.39975c-19.379425,15.174896 -33.056183,35.860382 -37.872711,58.001556c-3.904114,20.477905 4.488525,41.531525 20.315979,56.921539c19.900787,20.152649 48.514771,31.47644 76.248138,41.598206c-15.715027,-18.974091 -37.591614,-36.09491 -42.237549,-60.06723c-3.186768,-13.9198 3.198914,-27.890869 13.848877,-38.298187c12.190704,-14.376434 19.783325,-31.477997 24.293762,-48.740082c5.857727,-22.481415 1.162048,-46.789856 -13.15213,-66.284973c-3.532166,-2.2164 -9.843628,-13.862488 -7.786896,-3.065796z" stroke-opacity="0.503817" stroke-miterlimit="4" stroke-width="2.156311" fill-rule="evenodd" fill="url(#linearGradient4504)"/>
  </g>
 </g>
</svg>